<mxfile host="app.diagrams.net" agent="Mozilla/5.0 (X11; Ubuntu; Linux x86_64; rv:137.0) Gecko/20100101 Firefox/137.0" version="26.2.14">
  <diagram id="C5RBs43oDa-KdzZeNtuy" name="Page-1">
    <mxGraphModel dx="1360" dy="795" grid="1" gridSize="10" guides="1" tooltips="1" connect="1" arrows="1" fold="1" page="1" pageScale="1" pageWidth="827" pageHeight="1169" math="0" shadow="0">
      <root>
        <mxCell id="WIyWlLk6GJQsqaUBKTNV-0" />
        <mxCell id="WIyWlLk6GJQsqaUBKTNV-1" parent="WIyWlLk6GJQsqaUBKTNV-0" />
        <mxCell id="GOfJNdNeNU2Qqo1dJbFf-131" style="edgeStyle=orthogonalEdgeStyle;rounded=0;orthogonalLoop=1;jettySize=auto;html=1;" edge="1" parent="WIyWlLk6GJQsqaUBKTNV-1" source="GOfJNdNeNU2Qqo1dJbFf-1" target="GOfJNdNeNU2Qqo1dJbFf-116">
          <mxGeometry relative="1" as="geometry" />
        </mxCell>
        <mxCell id="GOfJNdNeNU2Qqo1dJbFf-1" value="Inicio" style="ellipse;whiteSpace=wrap;html=1;" vertex="1" parent="WIyWlLk6GJQsqaUBKTNV-1">
          <mxGeometry x="320" y="50" width="120" height="80" as="geometry" />
        </mxCell>
        <mxCell id="GOfJNdNeNU2Qqo1dJbFf-8" value="Fin" style="ellipse;whiteSpace=wrap;html=1;" vertex="1" parent="WIyWlLk6GJQsqaUBKTNV-1">
          <mxGeometry x="640" y="830" width="120" height="80" as="geometry" />
        </mxCell>
        <mxCell id="GOfJNdNeNU2Qqo1dJbFf-132" style="edgeStyle=orthogonalEdgeStyle;rounded=0;orthogonalLoop=1;jettySize=auto;html=1;" edge="1" parent="WIyWlLk6GJQsqaUBKTNV-1" source="GOfJNdNeNU2Qqo1dJbFf-116" target="GOfJNdNeNU2Qqo1dJbFf-117">
          <mxGeometry relative="1" as="geometry" />
        </mxCell>
        <mxCell id="GOfJNdNeNU2Qqo1dJbFf-116" value="&lt;div&gt;primer_numero,&lt;/div&gt;&lt;div&gt;segundo_numero&lt;/div&gt;" style="shape=parallelogram;perimeter=parallelogramPerimeter;whiteSpace=wrap;html=1;fixedSize=1;" vertex="1" parent="WIyWlLk6GJQsqaUBKTNV-1">
          <mxGeometry x="320" y="210" width="120" height="60" as="geometry" />
        </mxCell>
        <mxCell id="GOfJNdNeNU2Qqo1dJbFf-126" style="edgeStyle=orthogonalEdgeStyle;rounded=0;orthogonalLoop=1;jettySize=auto;html=1;" edge="1" parent="WIyWlLk6GJQsqaUBKTNV-1" source="GOfJNdNeNU2Qqo1dJbFf-117" target="GOfJNdNeNU2Qqo1dJbFf-118">
          <mxGeometry relative="1" as="geometry" />
        </mxCell>
        <mxCell id="GOfJNdNeNU2Qqo1dJbFf-129" style="edgeStyle=orthogonalEdgeStyle;rounded=0;orthogonalLoop=1;jettySize=auto;html=1;" edge="1" parent="WIyWlLk6GJQsqaUBKTNV-1" source="GOfJNdNeNU2Qqo1dJbFf-117" target="GOfJNdNeNU2Qqo1dJbFf-119">
          <mxGeometry relative="1" as="geometry" />
        </mxCell>
        <mxCell id="GOfJNdNeNU2Qqo1dJbFf-117" value="primer_numero == segundo_numero" style="rhombus;whiteSpace=wrap;html=1;" vertex="1" parent="WIyWlLk6GJQsqaUBKTNV-1">
          <mxGeometry x="310" y="330" width="150" height="130" as="geometry" />
        </mxCell>
        <mxCell id="GOfJNdNeNU2Qqo1dJbFf-127" style="edgeStyle=orthogonalEdgeStyle;rounded=0;orthogonalLoop=1;jettySize=auto;html=1;" edge="1" parent="WIyWlLk6GJQsqaUBKTNV-1" source="GOfJNdNeNU2Qqo1dJbFf-118" target="GOfJNdNeNU2Qqo1dJbFf-120">
          <mxGeometry relative="1" as="geometry" />
        </mxCell>
        <mxCell id="GOfJNdNeNU2Qqo1dJbFf-128" style="edgeStyle=orthogonalEdgeStyle;rounded=0;orthogonalLoop=1;jettySize=auto;html=1;" edge="1" parent="WIyWlLk6GJQsqaUBKTNV-1" source="GOfJNdNeNU2Qqo1dJbFf-118" target="GOfJNdNeNU2Qqo1dJbFf-121">
          <mxGeometry relative="1" as="geometry" />
        </mxCell>
        <mxCell id="GOfJNdNeNU2Qqo1dJbFf-118" value="primer_numero &amp;lt; segundo_numero" style="rhombus;whiteSpace=wrap;html=1;" vertex="1" parent="WIyWlLk6GJQsqaUBKTNV-1">
          <mxGeometry x="320" y="540" width="140" height="140" as="geometry" />
        </mxCell>
        <mxCell id="GOfJNdNeNU2Qqo1dJbFf-119" value="&quot;Los numeros son iguales&quot;" style="shape=document;whiteSpace=wrap;html=1;boundedLbl=1;" vertex="1" parent="WIyWlLk6GJQsqaUBKTNV-1">
          <mxGeometry x="650" y="365" width="120" height="80" as="geometry" />
        </mxCell>
        <mxCell id="GOfJNdNeNU2Qqo1dJbFf-134" style="edgeStyle=orthogonalEdgeStyle;rounded=0;orthogonalLoop=1;jettySize=auto;html=1;" edge="1" parent="WIyWlLk6GJQsqaUBKTNV-1" source="GOfJNdNeNU2Qqo1dJbFf-120" target="GOfJNdNeNU2Qqo1dJbFf-8">
          <mxGeometry relative="1" as="geometry" />
        </mxCell>
        <mxCell id="GOfJNdNeNU2Qqo1dJbFf-120" value="&quot;El segundo numero es mayor que el primer numero&quot;" style="shape=document;whiteSpace=wrap;html=1;boundedLbl=1;" vertex="1" parent="WIyWlLk6GJQsqaUBKTNV-1">
          <mxGeometry x="520" y="560" width="120" height="80" as="geometry" />
        </mxCell>
        <mxCell id="GOfJNdNeNU2Qqo1dJbFf-133" style="edgeStyle=orthogonalEdgeStyle;rounded=0;orthogonalLoop=1;jettySize=auto;html=1;" edge="1" parent="WIyWlLk6GJQsqaUBKTNV-1" source="GOfJNdNeNU2Qqo1dJbFf-121" target="GOfJNdNeNU2Qqo1dJbFf-8">
          <mxGeometry relative="1" as="geometry" />
        </mxCell>
        <mxCell id="GOfJNdNeNU2Qqo1dJbFf-121" value="&quot;El primer numero es mayor que el segundo numero&quot;" style="shape=document;whiteSpace=wrap;html=1;boundedLbl=1;" vertex="1" parent="WIyWlLk6GJQsqaUBKTNV-1">
          <mxGeometry x="330" y="770" width="120" height="80" as="geometry" />
        </mxCell>
        <mxCell id="GOfJNdNeNU2Qqo1dJbFf-122" value="Si" style="text;html=1;align=center;verticalAlign=middle;whiteSpace=wrap;rounded=0;" vertex="1" parent="WIyWlLk6GJQsqaUBKTNV-1">
          <mxGeometry x="440" y="560" width="60" height="30" as="geometry" />
        </mxCell>
        <mxCell id="GOfJNdNeNU2Qqo1dJbFf-123" value="No" style="text;html=1;align=center;verticalAlign=middle;whiteSpace=wrap;rounded=0;" vertex="1" parent="WIyWlLk6GJQsqaUBKTNV-1">
          <mxGeometry x="300" y="650" width="60" height="30" as="geometry" />
        </mxCell>
        <mxCell id="GOfJNdNeNU2Qqo1dJbFf-125" value="No" style="text;html=1;align=center;verticalAlign=middle;whiteSpace=wrap;rounded=0;" vertex="1" parent="WIyWlLk6GJQsqaUBKTNV-1">
          <mxGeometry x="310" y="470" width="60" height="30" as="geometry" />
        </mxCell>
        <mxCell id="GOfJNdNeNU2Qqo1dJbFf-130" value="Si" style="text;html=1;align=center;verticalAlign=middle;whiteSpace=wrap;rounded=0;" vertex="1" parent="WIyWlLk6GJQsqaUBKTNV-1">
          <mxGeometry x="450" y="350" width="60" height="30" as="geometry" />
        </mxCell>
        <mxCell id="GOfJNdNeNU2Qqo1dJbFf-135" style="edgeStyle=orthogonalEdgeStyle;rounded=0;orthogonalLoop=1;jettySize=auto;html=1;entryX=0.958;entryY=0.4;entryDx=0;entryDy=0;entryPerimeter=0;" edge="1" parent="WIyWlLk6GJQsqaUBKTNV-1" source="GOfJNdNeNU2Qqo1dJbFf-119" target="GOfJNdNeNU2Qqo1dJbFf-8">
          <mxGeometry relative="1" as="geometry" />
        </mxCell>
      </root>
    </mxGraphModel>
  </diagram>
</mxfile>
